<?xml version="1.0" encoding="UTF-8" standalone="no"?><svg xmlns="http://www.w3.org/2000/svg" xmlns:xlink="http://www.w3.org/1999/xlink"><symbol id="cross" version="1.1" xmlns="http://www.w3.org/2000/svg" xmlns:xlink="http://www.w3.org/1999/xlink" x="0px" y="0px" viewBox="0 0 48 48"><path d="M28.228,23.986L47.092,5.122c1.172-1.171,1.172-3.071,0-4.242c-1.172-1.172-3.07-1.172-4.242,0L23.986,19.744L5.121,0.88c-1.172-1.172-3.07-1.172-4.242,0c-1.172,1.171-1.172,3.071,0,4.242l18.865,18.864L0.879,42.85c-1.172,1.171-1.172,3.071,0,4.242C1.465,47.677,2.233,47.97,3,47.97s1.535-0.293,2.121-0.879l18.865-18.864L42.85,47.091c0.586,0.586,1.354,0.879,2.121,0.879s1.535-0.293,2.121-0.879c1.172-1.171,1.172-3.071,0-4.242L28.228,23.986z"></path></symbol><symbol id="search" version="1.1" xmlns="http://www.w3.org/2000/svg" xmlns:xlink="http://www.w3.org/1999/xlink" viewBox="0 0 612.01 612.01" width="12" height="12"><path d="M606.209,578.714L448.198,423.228C489.576,378.272,515,318.817,515,253.393C514.98,113.439,399.704,0,257.493,0
      C115.282,0,0.006,113.439,0.006,253.393s115.276,253.393,257.487,253.393c61.445,0,117.801-21.253,162.068-56.586
      l158.624,156.099c7.729,7.614,20.277,7.614,28.006,0C613.938,598.686,613.938,586.328,606.209,578.714z M257.493,467.8
      c-120.326,0-217.869-95.993-217.869-214.407S137.167,38.986,257.493,38.986c120.327,0,217.869,95.993,217.869,214.407
      S377.82,467.8,257.493,467.8z"></path></symbol></svg>